<?xml version="1.0" encoding="utf-8"?>
<?xml-stylesheet type="text/xsl" href="rss1.xsl"?>
<rss version="2.0" xmlns:atom="http://www.w3.org/2005/Atom" xmlns:content="http://purl.org/rss/1.0/modules/content/" xmlns:dc="http://purl.org/dc/elements/1.1/" xmlns:media="http://search.yahoo.com/mrss/">
<channel>
 <title>Getty</title>
 <link>http://www.gettyimg.com/</link>
 <atom:link href="http://www.gettyimg.com/" rel="self" type="application/rss+xml" />

 
                <item>
                <title><![CDATA[【Apple Music】WEB-RiP - Monika Lewczuk  - Z Tobą Lub Bez Ciebie (1080p)]]></title>
                <link><![CDATA[https://sharemania.us/threads/monika-lewczuk-z-tob%C4%85-lub-bez-ciebie-1080p.250891/]]></link>
                <description><![CDATA[<article>
<blockquote class="messageText SelectQuoteContainer ugc baseHtml">
<img src="https://i.postimg.cc/J0HnJthn/Monika-Lewczuk-Z-Tob-Lub-Bez-Ciebie-mp4.jpg" class="bbCodeImage LbImage" alt="[​IMG]" data-url="https://i.postimg.cc/J0HnJthn/Monika-Lewczuk-Z-Tob-Lub-Bez-Ciebie-mp4.jpg" style=""><br>
<br>
<div class="bbCodeBlock bbCodeCode">
<div class="type">Code:</div>
<pre>General
Complete name                  : G:\Новая папка\Monika Lewczuk  - Z Tobą Lub Bez Ciebie.mp4
Format                         : MPEG-4
Format profile                 : Base Media
Codec ID                       : isom (isom/iso2/avc1/mp41)
File size                      : 193 MiB
Duration                       : 2 min 47 s
Overall bit rate               : 9 637 kb/s
Frame rate                     : 25.000 FPS
Movie name                     : Z Tobą Lub Bez Ciebie
Performer                      : Monika Lewczuk
Genre                          : Pop
ContentType                    : Music Video
Recorded date                  : 2019-03-08 08:00:00 UTC
Writing application            : Lavf56.30.100
Copyright                      : ℗ 2019 Universal Music Polska

Video
ID                             : 1
Format                         : AVC
Format/Info                    : Advanced Video Codec
Format profile                 : High@L4.1
Format settings                : CABAC / 5 Ref Frames
Format settings, CABAC         : Yes
Format settings, Reference fra : 5 frames
Format settings, Slice count   : 8 slices per frame
Codec ID                       : avc1
Codec ID/Info                  : Advanced Video Coding
Duration                       : 2 min 47 s
Bit rate                       : 9 380 kb/s
Width                          : 1 912 pixels
Height                         : 796 pixels
Display aspect ratio           : 2.40:1
Frame rate mode                : Constant
Frame rate                     : 25.000 FPS
Color space                    : YUV
Chroma subsampling             : 4:2:0
Bit depth                      : 8 bits
Scan type                      : Progressive
Bits/(Pixel*Frame)             : 0.247
Stream size                    : 188 MiB (97%)
Color range                    : Limited
Color primaries                : BT.709
Transfer characteristics       : BT.709
Matrix coefficients            : BT.709
Codec configuration box        : avcC

Audio
ID                             : 2
Format                         : AAC LC
Format/Info                    : Advanced Audio Codec Low Complexity
Codec ID                       : mp4a-40-2
Duration                       : 2 min 47 s
Duration_LastFrame             : -12 ms
Bit rate mode                  : Constant
Bit rate                       : 254 kb/s
Channel(s)                     : 2 channels
Channel layout                 : L R
Sampling rate                  : 48.0 kHz
Frame rate                     : 46.875 FPS (1024 SPF)
Compression mode               : Lossy
Stream size                    : 5.08 MiB (3%)
Default                        : Yes
Alternate group                : 1

</pre>
</div>
<div class="bbCodeBlock bbCodeVfcHH HiddenContent">
<div class="attribution type">Hidden Content:</div>
<blockquote>You must either reply or click 'Like' to see the hidden information contained here.</blockquote>
</div>
<div class="messageTextEndMarker">&nbsp;</div>
</blockquote>
</article>]]></description>
                <author><![CDATA[vitalya3]]></author>
                </item>

                
                <item>
                <title><![CDATA[【Apple Music】WEB-RiP - Pitbull, El Chombo &amp; KAROL G - Dame Tu Cosita (feat. Cutty Ranks) (1080p)]]></title>
                <link><![CDATA[https://sharemania.us/threads/pitbull-el-chombo-karol-g-dame-tu-cosita-feat-cutty-ranks-1080p.250889/]]></link>
                <description><![CDATA[<article>
<blockquote class="messageText SelectQuoteContainer ugc baseHtml">
<img src="https://i.postimg.cc/NG3ZBLR0/Pitbull-El-Chombo-KAROL-G-Dame-Tu-Cosita-feat-Cutty-Ranks-mp4.jpg" class="bbCodeImage LbImage" alt="[​IMG]" data-url="https://i.postimg.cc/NG3ZBLR0/Pitbull-El-Chombo-KAROL-G-Dame-Tu-Cosita-feat-Cutty-Ranks-mp4.jpg" style=""><br>
<br>
<div class="bbCodeBlock bbCodeCode">
<div class="type">Code:</div>
<pre>General
Complete name                  : G:\Новая папка\Pitbull, El Chombo &amp; KAROL G - Dame Tu Cosita (feat. Cutty Ranks).mp4
Format                         : MPEG-4
Format profile                 : Base Media
Codec ID                       : isom (isom/iso2/avc1/mp41)
File size                      : 155 MiB
Duration                       : 3 min 11 s
Overall bit rate               : 6 802 kb/s
Frame rate                     : 25.000 FPS
Movie name                     : Dame Tu Cosita (feat. Cutty Ranks)
Performer                      : Pitbull, El Chombo &amp; KAROL G
Genre                          : Pop
ContentType                    : Music Video
Recorded date                  : 2018-08-29 07:00:00 UTC
Writing application            : Lavf56.30.100
Copyright                      : ℗ 2018 Juston Records / Play Two under exclusive license to Ultra Records, LLC.

Video
ID                             : 1
Format                         : AVC
Format/Info                    : Advanced Video Codec
Format profile                 : High@L4
Format settings                : CABAC / 5 Ref Frames
Format settings, CABAC         : Yes
Format settings, Reference fra : 5 frames
Format settings, Slice count   : 8 slices per frame
Codec ID                       : avc1
Codec ID/Info                  : Advanced Video Coding
Duration                       : 3 min 11 s
Bit rate                       : 6 550 kb/s
Width                          : 1 920 pixels
Height                         : 712 pixels
Display aspect ratio           : 2.697
Frame rate mode                : Constant
Frame rate                     : 25.000 FPS
Color space                    : YUV
Chroma subsampling             : 4:2:0
Bit depth                      : 8 bits
Scan type                      : Progressive
Bits/(Pixel*Frame)             : 0.192
Stream size                    : 149 MiB (96%)
Color range                    : Limited
Color primaries                : BT.709
Transfer characteristics       : BT.709
Matrix coefficients            : BT.709
Codec configuration box        : avcC

Audio
ID                             : 2
Format                         : AAC LC
Format/Info                    : Advanced Audio Codec Low Complexity
Codec ID                       : mp4a-40-2
Duration                       : 3 min 11 s
Duration_LastFrame             : -12 ms
Bit rate mode                  : Constant
Bit rate                       : 247 kb/s
Channel(s)                     : 2 channels
Channel layout                 : L R
Sampling rate                  : 48.0 kHz
Frame rate                     : 46.875 FPS (1024 SPF)
Compression mode               : Lossy
Stream size                    : 5.64 MiB (4%)
Default                        : Yes
Alternate group                : 1

</pre>
</div>
<div class="bbCodeBlock bbCodeVfcHH HiddenContent">
<div class="attribution type">Hidden Content:</div>
<blockquote>You must either reply or click 'Like' to see the hidden information contained here.</blockquote>
</div>
<div class="messageTextEndMarker">&nbsp;</div>
</blockquote>
</article>]]></description>
                <author><![CDATA[vitalya3]]></author>
                </item>

                
                <item>
                <title><![CDATA[【Albums (lossless)】Deadpool (Original Motion Picture Soundtrack) - Junkie XL &amp; VA (2016) [16bit/44.1kHz] [FLAC]]]></title>
                <link><![CDATA[https://sharemania.us/threads/deadpool-original-motion-picture-soundtrack-junkie-xl-va-2016-16bit-44-1khz-flac.250890/]]></link>
                <description><![CDATA[<article>
<blockquote class="messageText SelectQuoteContainer ugc baseHtml">
Release Date: 2016<br>
Format: FLAC<br>
<br>
Tracklist:<br>
<br>
01. Juice Newton - Angel of the Morning<br>
02. Junkie XL - Maximum Effort<br>
03. Junkie XL - Small Disruption<br>
04. Salt 'N' Pepa - Shoop<br>
05. Junkie XL - Twelve Bullets<br>
06. Junkie XL - Man in a Red Suit<br>
07. Junkie XL - Liam Neeson Nightmares<br>
08. Neil Sedaka - Calendar Girl<br>
09. Junkie XL - The Punch Bowl<br>
10. Junkie XL - Back to Life<br>
11. Junkie XL - Every Time I See Her<br>
12. TeamHeadKick - Deadpool Rap<br>
13. Junkie XL - Easy Angel<br>
14. Junkie XL - Scrap Yard<br>
15. Junkie XL - This Place Looks Sanitary<br>
16. Junkie XL - Watership Down<br>
17. DMX - X Gon' Give It to Ya<br>
18. Junkie XL - Going Commando<br>
19. Junkie XL - Let's Try to Kill Each Other<br>
20. Junkie XL - Stupider When You Say It<br>
21. Junkie XL - Four or Five Moments<br>
22. Junkie XL - A Face I Would Sit On<br>
23. George Michael - Careless Whisper<br>
<br>
<div class="bbCodeBlock bbCodeVfcHH HiddenContent">
<div class="attribution type">Hidden Content:</div>
<blockquote>You must reply before you can see the hidden data contained here.</blockquote>
</div>
<div class="messageTextEndMarker">&nbsp;</div>
</blockquote>
</article>]]></description>
                <author><![CDATA[phechft]]></author>
                </item>

                
                <item>
                <title><![CDATA[【PRORES HD】Anitta [ft. Saweetie] - 2021 - Faking Love [mov]]]></title>
                <link><![CDATA[https://sharemania.us/threads/anitta-ft-saweetie-2021-faking-love-mov.250892/]]></link>
                <description><![CDATA[<article>
<blockquote class="messageText SelectQuoteContainer ugc baseHtml">
<div style="text-align: center"><img src="https://i.imgur.com/78rAsKt.jpeg" class="bbCodeImage LbImage" alt="[​IMG]" data-url="https://i.imgur.com/78rAsKt.jpeg" style=""> <br>
<b>Artist</b>: Anitta [feat. Saweetie]<br>
<b>Song</b>: Faking Love<br>
<b>Size</b>: 4,5GB<br>
<b>Genre</b>: Latin Pop<br>
<b>Duration</b>: 02:28<br>
<b>Year</b>: 2021<br>
<b>Quality</b>: Master<br>
<b>Video resolution/scaling</b>: 1080p<br>
<b>Container</b>: MOV<br>
<b>Video Codec</b>: AP4H<br>
<b>Audio Codec</b>: PCM<br>
<b>Video</b>: AP4H 1552x1080 23.976fps 261 Mb/s<br>
<b>Audio</b>: PCM 48000Hz stereo 1 536 kb/s<br>
<br>
<b><span style="font-size: 22px"><span style="color: #b30000">send.cm</span></span></b>:<br>
<br>
<div class="bbCodeBlock bbCodeVfcHH HiddenContent">
<div class="attribution type">Hidden Content:</div>
<blockquote>You must either reply or click 'Like' to see the hidden information contained here.</blockquote>
</div></div>
<div class="messageTextEndMarker">&nbsp;</div>
</blockquote>
</article>]]></description>
                <author><![CDATA[XRB80]]></author>
                </item>

                </channel></rss>